PathFileType	4	(X/Y/Z)	2014001\dynamic\2014001_C1_04.trc
DataRate	CameraRate	NumFrames	NumMarkers	Units	OrigDataRate	OrigDataStartFrame	OrigNumFrames
100.000000	100.000000	4	52	mm	100.000000	355	569
Frame#	Time	L_IAS			L_IPS			R_IPS			R_IAS			L_FTC			L_FLE			L_FME			L_FAX			L_TTC			L_FAL			L_TAM			L_FCC			L_FM1			L_FM2			L_FM5			R_FTC			R_FLE			R_FME			R_FAX			R_TTC			R_FAL			R_TAM			R_FCC			R_FM1			R_FM2			R_FM5			CV7			TV10			SXS			SJN			L_SIA			L_SRS			L_SAA			L_SAE			L_HLE			L_HME			L_UOA			L_RSP			L_UHE			L_HM2			L_HM5			R_SIA			R_SRS			R_SAA			R_SAE			R_HLE			R_HME			R_UOA			R_RSP			R_UHE			R_HM2			R_HM5			
		X1	Y1	Z1	X2	Y2	Z2	X3	Y3	Z3	X4	Y4	Z4	X5	Y5	Z5	X6	Y6	Z6	X7	Y7	Z7	X8	Y8	Z8	X9	Y9	Z9	X10	Y10	Z10	X11	Y11	Z11	X12	Y12	Z12	X13	Y13	Z13	X14	Y14	Z14	X15	Y15	Z15	X16	Y16	Z16	X17	Y17	Z17	X18	Y18	Z18	X19	Y19	Z19	X20	Y20	Z20	X21	Y21	Z21	X22	Y22	Z22	X23	Y23	Z23	X24	Y24	Z24	X25	Y25	Z25	X26	Y26	Z26	X27	Y27	Z27	X28	Y28	Z28	X29	Y29	Z29	X30	Y30	Z30	X31	Y31	Z31	X32	Y32	Z32	X33	Y33	Z33	X34	Y34	Z34	X35	Y35	Z35	X36	Y36	Z36	X37	Y37	Z37	X38	Y38	Z38	X39	Y39	Z39	X40	Y40	Z40	X41	Y41	Z41	X42	Y42	Z42	X43	Y43	Z43	X44	Y44	Z44	X45	Y45	Z45	X46	Y46	Z46	X47	Y47	Z47	X48	Y48	Z48	X49	Y49	Z49	X50	Y50	Z50	X51	Y51	Z51	X52	Y52	Z52	

356	3.55	305.6751098632814	882.5249023437505	799.4609375000005	215.1548309326173	905.264770507813	624.1868286132815	126.5743103027344	898.705200195313	631.0179443359377	64.17335510253909	867.0398559570317	812.7849731445317	364.8690795898439	799.4890747070317	731.5539550781252	366.4085693359376	463.5489807128909	859.596313476563	253.8053131103517	453.467956542969	895.4507446289067	372.4099121093751	400.2868347167971	850.2903442382817	337.2352294921876	392.2472229003909	922.9230346679692	354.9389038085939	78.19265747070315	886.5634155273442	273.3504028320314	90.44996643066409	922.2204589843755	305.5798339843751	26.06842422485353	861.0123901367192	316.129119873047	75.80041503906253	1035.284301757813	373.5533752441407	84.30066680908206	1026.943603515625	403.0883483886721	55.86612701416018	980.6387329101567	11.24967670440674	767.049987792969	721.5241699218752	80.36189270019534	423.7346496582034	693.9605712890627	201.3937377929689	422.574401855469	694.3045654296877	80.97109985351565	359.1307373046876	665.3643798828127	140.4254608154297	348.7383422851564	719.7551879882815	146.6519317626954	69.10234832763675	556.7626953125002	236.4259033203126	84.57446289062503	589.9143066406252	202.9207916259767	32.95220947265626	507.0151672363284	222.1665344238282	21.40478134155274	691.9998168945315	159.0412292480469	37.56392669677736	700.4854125976565	111.2341079711915	25.81298255920412	640.830017089844	177.4491271972657	1372.530517578125	654.3408203125002	165.1765899658204	1139.351440429688	588.8336181640627	191.8614349365235	1140.652709960938	818.0072631835942	190.9302368164063	1303.907104492188	777.6204223632817	258.4621582031251	1177.105102539063	571.836608886719	257.3544311523439	1307.238037109375	596.900573730469	372.0256652832032	1298.78466796875	659.246765136719	362.2614135742189	1309.425659179688	700.8203125000002	427.3648071289065	1025.01171875	648.2316894531252	348.2202758789064	994.072143554688	638.985046386719	394.7896118164065	991.3441772460942	620.2161865234377	407.7749633789065	802.8886718750005	762.7678833007815	463.6575317382815	795.042602539063	704.2713012695315	421.186462402344	723.4362792968752	796.8362426757817	464.512878417969	716.7214965820315	704.0351562500002	51.31074905395511	1186.657836914063	595.4175415039065	81.36499023437503	1310.862548828125	619.4500732421877	-11.68046665191651	1309.98388671875	710.3645019531252	5.94523859024048	1313.135375976563	756.5806884765627	-82.53999328613284	1011.896301269532	716.4632568359377	-11.42941665649414	993.932250976563	680.7163085937502	-57.42484283447268	986.2668457031255	683.5583496093752	-36.01025009155275	812.2374877929692	826.6162719726567	-106.7337265014649	805.9389648437505	783.2405395507817	-49.5810470581055	728.8638916015627	866.6657714843755	-109.0940170288087	726.428894042969	782.7913208007817	
357	3.56	305.7874755859376	882.166381835938	801.6359863281255	215.6556396484376	905.0217285156255	626.1594238281252	127.057960510254	898.5474243164067	632.8364868164065	64.23050689697268	866.8490600585942	814.4429321289067	365.2004699707032	799.1931152343755	733.5454711914065	366.1366271972657	463.3545227050784	862.005981445313	253.3963165283204	453.592224121094	897.2302856445317	372.3633117675782	399.8931579589846	853.9335327148442	336.6194152832032	393.2234802246096	926.3441772460942	355.4289550781251	78.48754882812503	896.759887695313	273.4468994140626	91.33623504638675	931.4423828125005	306.2948303222657	25.79541778564455	871.7986450195317	315.0013122558595	78.77056121826175	1045.230224609375	372.5539550781251	87.14518737792972	1037.353515625	402.545104980469	57.86394500732425	991.864624023438	11.41973114013672	766.976989746094	723.0257568359377	80.41963195800784	423.6923522949221	694.8442993164065	201.3775787353517	422.4313964843752	695.434509277344	81.04010772705081	359.1447143554689	666.1035156250002	140.5397186279297	348.6599426269532	720.5632934570315	146.6351318359376	69.339225769043	556.8372192382815	236.4014892578126	84.71244812011722	590.081237792969	202.9315185546876	33.23997497558595	507.047546386719	222.0772094726564	21.45284652709962	691.992858886719	159.0088195800782	37.61085891723634	700.495544433594	111.1834335327149	25.80064201354982	640.820495605469	177.9765167236329	1372.273315429688	656.0878906250002	165.8350067138672	1139.050537109375	590.642761230469	192.1647338867189	1140.442993164063	819.824829101563	191.312728881836	1303.673461914063	779.388061523438	259.0868225097657	1176.794921875	573.7510375976565	257.936004638672	1306.943359375	598.728454589844	372.5314331054689	1298.535522460938	661.1904907226565	362.7321166992189	1309.197509765625	702.7493286132815	427.8816833496096	1024.735717773438	650.354919433594	348.7574157714845	993.8025512695317	641.0515747070315	395.3581848144534	990.9830932617192	622.3635253906252	407.8403625488284	803.221069335938	765.724060058594	463.9501647949221	794.876342773438	707.1257324218752	421.3091735839846	723.611755371094	799.8720092773442	464.7763977050784	716.5571289062502	707.161315917969	51.94295120239261	1186.376953125	597.0170898437502	81.94639587402347	1310.566162109375	621.0743408203127	-11.21846103668213	1309.720581054688	711.868835449219	6.354109764099125	1312.873046875	758.1148681640627	-82.02491760253909	1011.610595703125	718.0251464843752	-10.88716411590577	993.654174804688	682.3226318359377	-56.87793350219729	985.9894409179692	685.1272583007815	-35.52883911132814	811.971313476563	828.2822875976567	-106.2125091552735	805.6514282226567	784.8159790039067	-49.09029388427737	728.592712402344	868.2656250000005	-108.5867996215821	726.1553344726565	784.340942382813	
358	3.57	305.9153137207032	881.7694702148442	803.8344116210942	216.1680297851564	904.7803344726567	628.1616821289065	127.5529251098633	898.3835449218755	634.684997558594	64.3029479980469	866.6323242187505	816.131958007813	365.5542602539064	798.8649902343755	735.5179443359377	365.8651733398439	463.142517089844	864.3825683593755	252.9712829589845	453.6691894531252	898.965209960938	372.3084411621095	399.5267333984377	857.5199584960942	335.9779663085939	394.1492309570315	929.673461914063	355.8629150390626	78.89358520507815	906.6592407226567	273.4906616210939	92.28675079345706	940.3114624023442	306.9739990234376	25.65176200866701	882.2253417968755	313.7367553710939	81.73700714111331	1054.782104492188	371.4301757812501	89.979362487793	1047.424194335938	401.8945617675784	59.91012954711917	1002.758850097657	11.60896682739258	766.8881835937502	724.5555419921877	80.48631286621097	423.6306762695315	695.7521972656252	201.3668670654298	422.2702636718752	696.5693359375002	81.11254882812503	359.1430969238282	666.8677368164065	140.6360626220704	348.5383911132814	721.3801879882815	146.6149291992188	69.56626892089847	556.9102783203127	236.3698577880861	84.84160614013675	590.2397460937502	202.9306182861329	33.52127075195314	507.0745849609377	221.9803161621095	21.49424552917481	691.985534667969	158.9783782958985	37.6426124572754	700.4964599609377	111.1316452026368	25.78527641296388	640.8115844726565	178.5391540527344	1371.998657226563	657.875915527344	166.5296478271485	1138.729736328125	592.501892089844	192.4793701171876	1140.21435546875	821.6882324218755	191.7117614746094	1303.421508789063	781.1990356445317	259.7476196289064	1176.460815429688	575.7214965820315	258.5550842285157	1306.627807617188	600.6091918945315	373.0686645507814	1298.269653320313	663.1954345703127	363.2319641113282	1308.94970703125	704.7385253906252	428.4311523437502	1024.450439453125	652.5127563476565	349.329559326172	993.5182495117192	643.152038574219	395.9626464843752	990.6178588867192	624.5404052734377	407.9704589843752	803.5231933593755	768.6719360351567	464.2796630859377	794.6870117187505	709.9738769531252	421.4701232910159	723.747009277344	802.884887695313	465.0758972167971	716.3721313476565	710.2647705078127	52.61928176879886	1186.076171875	598.642761230469	82.56741333007815	1310.250732421875	622.7280273437502	-10.73052883148194	1309.438110351563	713.3831787109377	6.778775691986088	1312.59228515625	759.6660766601565	-81.47978210449222	1011.306701660157	719.583435058594	-10.30289363861084	993.3574829101567	683.9451904296877	-56.29113769531253	985.697631835938	686.695251464844	-35.04773712158205	811.681762695313	829.9406127929692	-105.675765991211	805.341430664063	786.3735961914067	-48.61452102661136	728.300231933594	869.8676147460942	-108.0673141479493	725.8569335937502	785.860229492188	
359	3.58	306.0637207031251	881.337280273438	806.0543823242192	216.6902160644532	904.5368041992192	630.1968383789065	128.0585327148438	898.2116088867192	636.5659179687502	64.39383697509768	866.394165039063	817.8562011718755	365.9244079589845	798.5034179687505	737.4919433593752	365.5948181152345	462.9176025390627	866.7424926757817	252.5342407226564	453.705505371094	900.6845092773442	372.2424926757814	399.1845397949221	861.049438476563	335.3240966796876	395.0188598632815	932.9214477539067	356.2357177734376	79.38958740234378	916.2293090820317	273.485076904297	93.27980041503909	948.8178710937505	307.6048583984376	25.62147712707521	892.264282226563	312.367889404297	84.6686935424805	1063.9248046875	370.2125244140626	92.76877593994143	1057.124755859375	401.1552429199221	61.9693412780762	1013.281616210938	11.81722354888916	766.786071777344	726.1187744140627	80.5598068237305	423.5519104003909	696.6807861328127	201.3642883300782	422.0952453613284	697.705261230469	81.18543243408206	359.1286010742189	667.6555786132815	140.7102203369141	348.3787231445314	722.2023925781252	146.5881958007813	69.78477478027347	556.9824218750002	236.3285980224611	84.96321105957034	590.389099121094	202.915008544922	33.79798507690431	507.0967712402346	221.8770446777345	21.53032302856446	691.9766235351565	158.9492645263672	37.66099929809572	700.4900512695315	111.0770721435547	25.7670021057129	640.8047485351565	179.1376495361329	1371.706665039063	659.7078247070315	167.2585144042969	1138.390747070313	594.410339355469	192.8062896728517	1139.966064453125	823.5972290039067	192.127899169922	1303.14990234375	783.0558471679692	260.444305419922	1176.104370117188	577.7485961914065	259.2129516601564	1306.293090820313	602.5457763671877	373.6385803222657	1297.9853515625	665.266540527344	363.7611083984376	1308.680053710938	706.792663574219	429.0135498046877	1024.153198242188	654.7128906250002	349.9365844726564	993.216430664063	645.291198730469	396.6030273437502	990.246948242188	626.7525634765627	408.1729431152346	803.7627563476567	771.5905761718755	464.6481018066409	794.4717407226567	712.8150634765627	421.6698303222659	723.8337402343752	805.8706054687505	465.4131469726565	716.1626586914065	713.341003417969	53.33838272094729	1185.757934570313	600.296569824219	83.22792816162112	1309.918334960938	624.4145507812502	-10.21637725830078	1309.13671875	714.912048339844	7.219652652740482	1312.293212890625	761.238220214844	-80.90496826171878	1010.984802246094	721.1372070312502	-9.676655769348148	993.0427246093755	685.584167480469	-55.66453552246097	985.3908081054692	688.2623291015627	-34.56672286987306	811.3694458007817	831.5853881835942	-105.1231918334962	805.008666992188	787.9121093750005	-48.15518188476565	727.9885253906252	871.473999023438	-107.5342636108399	725.5338134765627	787.352661132813	
